<svg width="1309" height="583" viewBox="0 0 1309 583" fill="none" xmlns="http://www.w3.org/2000/svg">
<path d="M216 398C180.328 330.353 94.0191 232.658 26 398C33.4642 381.33 93.1992 214.387 122.134 133" stroke="#2CD16C" stroke-width="55"/>
<path d="M330.15 373.6C316.383 373.6 303.55 371.733 291.65 368C279.983 364.033 269.717 358.2 260.85 350.5C252.217 342.8 245.333 333.117 240.2 321.45C235.3 309.783 232.85 296.133 232.85 280.5C232.85 265.1 235.3 251.917 240.2 240.95C245.333 229.75 251.983 220.65 260.15 213.65C268.317 206.417 277.65 201.167 288.15 197.9C298.65 194.4 309.383 192.65 320.35 192.65C332.717 192.65 343.917 194.517 353.95 198.25C364.217 201.983 372.967 207.117 380.2 213.65C387.667 220.183 393.383 228 397.35 237.1C401.55 246.2 403.65 256.117 403.65 266.85C403.65 274.783 401.433 280.85 397 285.05C392.567 289.25 386.383 291.933 378.45 293.1L292 306.05C294.567 313.75 299.817 319.583 307.75 323.55C315.683 327.283 324.783 329.15 335.05 329.15C344.617 329.15 353.6 327.983 362 325.65C370.633 323.083 377.633 320.167 383 316.9C386.733 319.233 389.883 322.5 392.45 326.7C395.017 330.9 396.3 335.333 396.3 340C396.3 350.5 391.4 358.317 381.6 363.45C374.133 367.417 365.733 370.1 356.4 371.5C347.067 372.9 338.317 373.6 330.15 373.6ZM320.35 236.05C314.75 236.05 309.85 236.983 305.65 238.85C301.683 240.717 298.417 243.167 295.85 246.2C293.283 249 291.3 252.267 289.9 256C288.733 259.5 288.033 263.117 287.8 266.85L347.65 257.05C346.95 252.383 344.383 247.717 339.95 243.05C335.517 238.383 328.983 236.05 320.35 236.05ZM414.79 200.35C417.123 199.65 420.74 198.95 425.64 198.25C430.773 197.55 436.023 197.2 441.39 197.2C446.523 197.2 451.073 197.55 455.04 198.25C459.24 198.95 462.74 200.35 465.54 202.45C468.34 204.55 470.44 207.467 471.84 211.2C473.473 214.7 474.29 219.367 474.29 225.2V300.45C474.29 310.017 476.623 316.9 481.29 321.1C485.957 325.067 492.723 327.05 501.59 327.05C506.957 327.05 511.273 326.583 514.54 325.65C518.04 324.717 520.723 323.783 522.59 322.85V200.35C524.923 199.65 528.54 198.95 533.44 198.25C538.573 197.55 543.823 197.2 549.19 197.2C554.323 197.2 558.873 197.55 562.84 198.25C567.04 198.95 570.54 200.35 573.34 202.45C576.14 204.55 578.24 207.467 579.64 211.2C581.273 214.7 582.09 219.367 582.09 225.2V331.6C582.09 343.267 577.19 352.017 567.39 357.85C559.223 362.983 549.423 366.833 537.99 369.4C526.79 372.2 514.54 373.6 501.24 373.6C488.64 373.6 476.973 372.2 466.24 369.4C455.74 366.6 446.64 362.283 438.94 356.45C431.24 350.617 425.29 343.15 421.09 334.05C416.89 324.717 414.79 313.517 414.79 300.45V200.35ZM714.751 363.45C711.484 366.017 706.701 368.117 700.401 369.75C694.101 371.383 686.984 372.2 679.051 372.2C669.951 372.2 662.017 371.033 655.251 368.7C648.717 366.367 644.167 362.633 641.601 357.5C639.501 353.533 636.934 348.05 633.901 341.05C631.101 333.817 628.067 325.883 624.801 317.25C621.534 308.383 618.151 298.933 614.651 288.9C611.151 278.867 607.767 268.95 604.501 259.15C601.467 249.35 598.667 239.9 596.101 230.8C593.534 221.7 591.434 213.65 589.801 206.65C593.067 203.383 597.384 200.583 602.751 198.25C608.351 195.683 614.417 194.4 620.951 194.4C629.117 194.4 635.767 196.15 640.901 199.65C646.267 202.917 650.234 209.217 652.801 218.55L666.451 272.1C669.017 282.6 671.467 292.167 673.801 300.8C676.134 309.2 677.884 315.733 679.051 320.4H680.801C685.234 303.133 689.901 284 694.801 263C699.701 242 704.134 221.35 708.101 201.05C712.067 198.95 716.501 197.317 721.401 196.15C726.534 194.983 731.434 194.4 736.101 194.4C744.267 194.4 751.151 196.15 756.751 199.65C762.351 203.15 765.151 209.217 765.151 217.85C765.151 221.583 764.217 227.067 762.351 234.3C760.717 241.3 758.501 249.35 755.701 258.45C753.134 267.317 749.984 276.767 746.251 286.8C742.751 296.833 739.134 306.633 735.401 316.2C731.667 325.767 727.934 334.75 724.201 343.15C720.701 351.317 717.551 358.083 714.751 363.45ZM862.464 373.6C848.698 373.6 835.864 371.733 823.964 368C812.298 364.033 802.031 358.2 793.164 350.5C784.531 342.8 777.648 333.117 772.514 321.45C767.614 309.783 765.164 296.133 765.164 280.5C765.164 265.1 767.614 251.917 772.514 240.95C777.648 229.75 784.298 220.65 792.464 213.65C800.631 206.417 809.964 201.167 820.464 197.9C830.964 194.4 841.698 192.65 852.664 192.65C865.031 192.65 876.231 194.517 886.264 198.25C896.531 201.983 905.281 207.117 912.514 213.65C919.981 220.183 925.698 228 929.664 237.1C933.864 246.2 935.964 256.117 935.964 266.85C935.964 274.783 933.748 280.85 929.314 285.05C924.881 289.25 918.698 291.933 910.764 293.1L824.314 306.05C826.881 313.75 832.131 319.583 840.064 323.55C847.998 327.283 857.098 329.15 867.364 329.15C876.931 329.15 885.914 327.983 894.314 325.65C902.948 323.083 909.948 320.167 915.314 316.9C919.048 319.233 922.198 322.5 924.764 326.7C927.331 330.9 928.614 335.333 928.614 340C928.614 350.5 923.714 358.317 913.914 363.45C906.448 367.417 898.048 370.1 888.714 371.5C879.381 372.9 870.631 373.6 862.464 373.6ZM852.664 236.05C847.064 236.05 842.164 236.983 837.964 238.85C833.998 240.717 830.731 243.167 828.164 246.2C825.598 249 823.614 252.267 822.214 256C821.048 259.5 820.348 263.117 820.114 266.85L879.964 257.05C879.264 252.383 876.698 247.717 872.264 243.05C867.831 238.383 861.298 236.05 852.664 236.05ZM1006.6 367.65C1004.27 368.35 1000.54 369.05 995.404 369.75C990.504 370.45 985.371 370.8 980.004 370.8C974.871 370.8 970.204 370.45 966.004 369.75C962.038 369.05 958.654 367.65 955.854 365.55C953.054 363.45 950.838 360.65 949.204 357.15C947.804 353.417 947.104 348.633 947.104 342.8V237.8C947.104 232.433 948.038 227.883 949.904 224.15C952.004 220.183 954.921 216.683 958.654 213.65C962.388 210.617 966.938 207.933 972.304 205.6C977.904 203.033 983.854 200.817 990.154 198.95C996.454 197.083 1002.99 195.683 1009.75 194.75C1016.52 193.583 1023.29 193 1030.05 193C1041.25 193 1050.12 195.217 1056.65 199.65C1063.19 203.85 1066.45 210.85 1066.45 220.65C1066.45 223.917 1065.99 227.183 1065.05 230.45C1064.12 233.483 1062.95 236.283 1061.55 238.85C1056.65 238.85 1051.64 239.083 1046.5 239.55C1041.37 240.017 1036.35 240.717 1031.45 241.65C1026.55 242.583 1021.89 243.633 1017.45 244.8C1013.25 245.733 1009.64 246.9 1006.6 248.3V367.65ZM1141.17 330.2C1145.14 330.2 1149.46 329.85 1154.12 329.15C1159.02 328.217 1162.64 327.05 1164.97 325.65V297.65L1139.77 299.75C1133.24 300.217 1127.87 301.617 1123.67 303.95C1119.47 306.283 1117.37 309.783 1117.37 314.45C1117.37 319.117 1119.12 322.967 1122.62 326C1126.36 328.8 1132.54 330.2 1141.17 330.2ZM1138.37 192.65C1150.97 192.65 1162.41 193.933 1172.67 196.5C1183.17 199.067 1192.04 203.033 1199.27 208.4C1206.74 213.533 1212.46 220.183 1216.42 228.35C1220.39 236.283 1222.37 245.733 1222.37 256.7V335.1C1222.37 341.167 1220.62 346.183 1217.12 350.15C1213.86 353.883 1209.89 357.15 1205.22 359.95C1190.06 369.05 1168.71 373.6 1141.17 373.6C1128.81 373.6 1117.61 372.433 1107.57 370.1C1097.77 367.767 1089.26 364.267 1082.02 359.6C1075.02 354.933 1069.54 348.983 1065.57 341.75C1061.84 334.517 1059.97 326.117 1059.97 316.55C1059.97 300.45 1064.76 288.083 1074.32 279.45C1083.89 270.817 1098.71 265.45 1118.77 263.35L1164.62 258.45V256C1164.62 249.233 1161.59 244.45 1155.52 241.65C1149.69 238.617 1141.17 237.1 1129.97 237.1C1121.11 237.1 1112.47 238.033 1104.07 239.9C1095.67 241.767 1088.09 244.1 1081.32 246.9C1078.29 244.8 1075.72 241.65 1073.62 237.45C1071.52 233.017 1070.47 228.467 1070.47 223.8C1070.47 217.733 1071.87 212.95 1074.67 209.45C1077.71 205.717 1082.26 202.567 1088.32 200C1095.09 197.433 1103.02 195.567 1112.12 194.4C1121.46 193.233 1130.21 192.65 1138.37 192.65ZM1230.75 339.65C1230.75 329.85 1233.79 321.683 1239.85 315.15C1245.92 308.617 1254.2 305.35 1264.7 305.35C1275.2 305.35 1283.49 308.617 1289.55 315.15C1295.62 321.683 1298.65 329.85 1298.65 339.65C1298.65 349.45 1295.62 357.617 1289.55 364.15C1283.49 370.683 1275.2 373.95 1264.7 373.95C1254.2 373.95 1245.92 370.683 1239.85 364.15C1233.79 357.617 1230.75 349.45 1230.75 339.65Z" fill="black"/>
</svg>
